<?xml version="1.0" encoding="UTF-8" standalone="no"?>
<!-- Created with Inkscape (http://www.inkscape.org/) -->

<svg
   xmlns:dc="http://purl.org/dc/elements/1.1/"
   xmlns:cc="http://creativecommons.org/ns#"
   xmlns:rdf="http://www.w3.org/1999/02/22-rdf-syntax-ns#"
   xmlns:svg="http://www.w3.org/2000/svg"
   xmlns="http://www.w3.org/2000/svg"
   xmlns:sodipodi="http://sodipodi.sourceforge.net/DTD/sodipodi-0.dtd"
   xmlns:inkscape="http://www.inkscape.org/namespaces/inkscape"
   width="256"
   height="256"
   viewBox="0 0 256 256"
   id="svg2"
   version="1.1"
   inkscape:version="0.91 r13725"
   sodipodi:docname="comparison_circles_delete_right.svg">
  <defs
     id="defs4" />
  <sodipodi:namedview
     id="base"
     pagecolor="#ffffff"
     bordercolor="#666666"
     borderopacity="1.0"
     inkscape:pageopacity="0.0"
     inkscape:pageshadow="2"
     inkscape:zoom="1.979899"
     inkscape:cx="12.591859"
     inkscape:cy="147.87157"
     inkscape:document-units="px"
     inkscape:current-layer="layer1"
     showgrid="false"
     units="px"
     inkscape:window-width="1858"
     inkscape:window-height="1057"
     inkscape:window-x="54"
     inkscape:window-y="-8"
     inkscape:window-maximized="1" />
  <metadata
     id="metadata7">
    <rdf:RDF>
      <cc:Work
         rdf:about="">
        <dc:format>image/svg+xml</dc:format>
        <dc:type
           rdf:resource="http://purl.org/dc/dcmitype/StillImage" />
        <dc:title></dc:title>
      </cc:Work>
    </rdf:RDF>
  </metadata>
  <g
     inkscape:label="Layer 1"
     inkscape:groupmode="layer"
     id="layer1"
     transform="translate(0,-796.36216)">
    <circle
       style="opacity:0.5;fill:#b3b3b3;fill-opacity:1;stroke:none;stroke-width:2;stroke-miterlimit:4;stroke-dasharray:none;stroke-opacity:1"
       id="path3336-8-4-7"
       cx="166.88248"
       cy="924.36218"
       r="60" />
    <circle
       style="opacity:0.5;fill:#cccccc;fill-opacity:1;stroke:none;stroke-width:2;stroke-miterlimit:4;stroke-dasharray:none;stroke-opacity:1"
       id="path3336-8-2"
       cx="68.882477"
       cy="924.36218"
       r="60" />
    <path
       style="opacity:0.5;fill:#000000;fill-opacity:1;stroke:none;stroke-width:2;stroke-miterlimit:4;stroke-dasharray:none;stroke-opacity:1"
       d="m 166.88247,859.36216 a 65,65 0 0 0 -65,65 65,65 0 0 0 65,65 65,65 0 0 0 65,-65 65,65 0 0 0 -65,-65 z m 0,5 a 60,60 0 0 1 60,60 60,60 0 0 1 -60,60 60,60 0 0 1 -60,-60 60,60 0 0 1 60,-60 z"
       id="path3336-9"
       inkscape:connector-curvature="0" />
    <path
       style="opacity:0.5;fill:#000000;fill-opacity:1;stroke:none;stroke-width:2;stroke-miterlimit:4;stroke-dasharray:none;stroke-opacity:1"
       d="m 68.882475,859.36216 a 65,65 0 0 0 -65,65 65,65 0 0 0 65,65 65,65 0 0 0 64.999995,-65 65,65 0 0 0 -64.999995,-65 z m 0,5 a 60,60 0 0 1 59.999995,60 60,60 0 0 1 -59.999995,60 60,60 0 0 1 -60,-60 60,60 0 0 1 60,-60 z"
       id="path3336"
       inkscape:connector-curvature="0" />
    <rect
       style="fill:#800000;fill-rule:evenodd;stroke:#000000;stroke-width:0.71569955px;stroke-linecap:butt;stroke-linejoin:miter;stroke-opacity:1"
       id="rect3376-8"
       width="169.89517"
       height="26.027037"
       x="-860.0639"
       y="523.13104"
       transform="matrix(-0.70757602,-0.70663723,-0.71036437,0.70383411,0,0)" />
    <rect
       style="fill:#800000;fill-rule:evenodd;stroke:#000000;stroke-width:0.76226997px;stroke-linecap:butt;stroke-linejoin:miter;stroke-opacity:1"
       id="rect3376-8-9"
       width="180.95021"
       height="27.720612"
       x="-629.66901"
       y="759.1463"
       transform="matrix(0.70757602,-0.70663723,0.71036437,0.70383411,0,0)" />
  </g>
</svg>
