<?xml version="1.0" encoding="UTF-8" standalone="no"?>
<!-- Created with Inkscape (http://www.inkscape.org/) -->

<svg
   xmlns:dc="http://purl.org/dc/elements/1.1/"
   xmlns:cc="http://creativecommons.org/ns#"
   xmlns:rdf="http://www.w3.org/1999/02/22-rdf-syntax-ns#"
   xmlns:svg="http://www.w3.org/2000/svg"
   xmlns="http://www.w3.org/2000/svg"
   xmlns:sodipodi="http://sodipodi.sourceforge.net/DTD/sodipodi-0.dtd"
   xmlns:inkscape="http://www.inkscape.org/namespaces/inkscape"
   width="512mm"
   height="512mm"
   viewBox="0 0 1814.1732 1814.1732"
   id="svg2"
   version="1.1"
   inkscape:version="0.91pre4 r13712"
   sodipodi:docname="envelope_icon.svg">
  <defs
     id="defs4" />
  <sodipodi:namedview
     id="base"
     pagecolor="#ffffff"
     bordercolor="#666666"
     borderopacity="1.0"
     inkscape:pageopacity="0.0"
     inkscape:pageshadow="2"
     inkscape:zoom="0.35"
     inkscape:cx="454.09986"
     inkscape:cy="800.40334"
     inkscape:document-units="px"
     inkscape:current-layer="layer1"
     showgrid="false"
     inkscape:window-width="1858"
     inkscape:window-height="1058"
     inkscape:window-x="54"
     inkscape:window-y="-8"
     inkscape:window-maximized="1"
     inkscape:snap-bbox="true"
     inkscape:bbox-nodes="true" />
  <metadata
     id="metadata7">
    <rdf:RDF>
      <cc:Work
         rdf:about="">
        <dc:format>image/svg+xml</dc:format>
        <dc:type
           rdf:resource="http://purl.org/dc/dcmitype/StillImage" />
        <dc:title></dc:title>
      </cc:Work>
    </rdf:RDF>
  </metadata>
  <g
     inkscape:label="Layer 1"
     inkscape:groupmode="layer"
     id="layer1"
     transform="translate(0,761.81102)">
    <path
       style="fill:#000000"
       d="m 118.21401,-2.4000286 0,985.9530786 1579.28599,0 0,-985.9530786 -13.2221,0 1.1537,1.06055 -13.2416,12.1718696 4.1294,0 0,949.386759 -1536.92478,0 0,-949.386759 3.24267,0 -13.24154,-12.1718696 1.15364,-1.06055 -12.33538,0 z"
       id="rect3336"
       inkscape:connector-curvature="0" />
    <path
       style="fill:#000000"
       d="M 910.20703 36.242188 L 118.13672 759.32812 L 668.06836 1264.7715 L 682.46875 1251.6582 L 146.80859 759.33398 L 910.11523 62.505859 L 1668.5176 759.55469 L 1131.4414 1249.8574 L 1145.7988 1262.9297 L 1697.1895 759.55859 L 910.20703 36.242188 z "
       transform="translate(0,-761.81102)"
       id="rect3340" />
    <rect
       style="fill:#aa4400"
       id="rect3364"
       width="1061.9208"
       height="1047.0449"
       x="-1111.0542"
       y="-1009.3918"
       transform="matrix(0.73593644,-0.67705064,0.74093311,0.67157884,0,0)" />
    <path
       style="fill:#000000"
       d="m 819.66711,342.94367 0,0.0469 -701.4531,640.36128 0.2188,0.2012 28.6679,0 -0.2129,-0.1953 683.8047,-624.25195 158.4649,0 679.41009,624.44725 28.668,0 -696.998,-640.60936 -180.57039,0 z"
       id="path3366"
       inkscape:connector-curvature="0" />
  </g>
</svg>
